<svg width="574" height="146" viewBox="0 0 574 146" fill="none" xmlns="http://www.w3.org/2000/svg">
<rect x="2" y="2" width="570" height="142" stroke="black" stroke-width="4"/>
<path d="M161.815 40.0909H179.261L197.688 85.0455H198.472L216.898 40.0909H234.344V107H220.622V63.4503H220.067L202.751 106.673H193.408L176.092 63.2869H175.537V107H161.815V40.0909ZM268.607 107.98C263.445 107.98 259.002 106.935 255.277 104.844C251.575 102.731 248.721 99.7472 246.718 95.892C244.714 92.0152 243.712 87.4304 243.712 82.1378C243.712 76.9759 244.714 72.4455 246.718 68.5469C248.721 64.6482 251.542 61.6098 255.179 59.4318C258.838 57.2538 263.129 56.1648 268.051 56.1648C271.362 56.1648 274.444 56.6984 277.297 57.7656C280.172 58.8111 282.677 60.3902 284.811 62.5028C286.968 64.6155 288.645 67.2727 289.843 70.4744C291.041 73.6544 291.64 77.3788 291.64 81.6477V85.4702H249.266V76.8452H278.539C278.539 74.8414 278.103 73.0663 277.232 71.5199C276.361 69.9735 275.152 68.7647 273.605 67.8935C272.081 67.0005 270.306 66.554 268.28 66.554C266.167 66.554 264.294 67.044 262.661 68.0241C261.049 68.9825 259.786 70.2784 258.871 71.9119C257.956 73.5237 257.488 75.3205 257.466 77.3026V85.5028C257.466 87.9858 257.924 90.1312 258.838 91.9389C259.775 93.7467 261.093 95.1406 262.792 96.1207C264.49 97.1009 266.505 97.5909 268.836 97.5909C270.382 97.5909 271.798 97.3731 273.083 96.9375C274.368 96.5019 275.468 95.8485 276.382 94.9773C277.297 94.1061 277.994 93.0388 278.473 91.7756L291.346 92.625C290.692 95.7178 289.353 98.4186 287.327 100.727C285.323 103.014 282.731 104.8 279.551 106.085C276.393 107.348 272.745 107.98 268.607 107.98ZM323.33 126.864C318.821 126.864 314.955 126.243 311.732 125.001C308.53 123.782 305.982 122.116 304.087 120.003C302.192 117.89 300.962 115.516 300.395 112.881L313.267 111.149C313.659 112.151 314.28 113.088 315.13 113.959C315.979 114.83 317.101 115.527 318.495 116.05C319.91 116.594 321.631 116.866 323.657 116.866C326.684 116.866 329.178 116.126 331.138 114.645C333.12 113.186 334.111 110.735 334.111 107.294V98.1136H333.523C332.913 99.5076 331.998 100.825 330.779 102.067C329.559 103.308 327.991 104.321 326.074 105.105C324.158 105.889 321.871 106.281 319.213 106.281C315.445 106.281 312.015 105.41 308.922 103.668C305.851 101.903 303.401 99.2135 301.571 95.598C299.764 91.9607 298.86 87.3651 298.86 81.8111C298.86 76.1264 299.785 71.3783 301.637 67.5668C303.488 63.7552 305.949 60.902 309.02 59.0071C312.113 57.1122 315.5 56.1648 319.181 56.1648C321.99 56.1648 324.343 56.6439 326.238 57.6023C328.132 58.5388 329.657 59.715 330.811 61.1307C331.988 62.5246 332.891 63.8968 333.523 65.2472H334.046V56.8182H347.865V107.49C347.865 111.759 346.82 115.331 344.729 118.206C342.638 121.081 339.741 123.237 336.039 124.675C332.358 126.134 328.122 126.864 323.33 126.864ZM323.624 95.8267C325.867 95.8267 327.762 95.2713 329.309 94.1605C330.877 93.0279 332.075 91.4162 332.902 89.3253C333.752 87.2126 334.176 84.6861 334.176 81.7457C334.176 78.8054 333.763 76.2571 332.935 74.1009C332.107 71.9228 330.909 70.2348 329.341 69.0369C327.773 67.839 325.867 67.2401 323.624 67.2401C321.337 67.2401 319.409 67.8608 317.841 69.1023C316.273 70.322 315.086 72.0208 314.28 74.1989C313.474 76.3769 313.071 78.8925 313.071 81.7457C313.071 84.6425 313.474 87.1473 314.28 89.2599C315.108 91.3509 316.295 92.9735 317.841 94.1278C319.409 95.2604 321.337 95.8267 323.624 95.8267ZM373.25 107.947C370.049 107.947 367.195 107.392 364.691 106.281C362.186 105.149 360.204 103.482 358.745 101.283C357.307 99.0611 356.588 96.295 356.588 92.9844C356.588 90.1965 357.1 87.8551 358.124 85.9602C359.148 84.0653 360.542 82.5407 362.306 81.3864C364.07 80.232 366.074 79.3608 368.317 78.7727C370.582 78.1847 372.956 77.7708 375.439 77.5312C378.358 77.2263 380.71 76.9432 382.496 76.6818C384.282 76.3987 385.578 75.9848 386.384 75.4403C387.19 74.8958 387.593 74.09 387.593 73.0227V72.8267C387.593 70.7576 386.939 69.1567 385.632 68.0241C384.347 66.8916 382.518 66.3253 380.144 66.3253C377.639 66.3253 375.646 66.8807 374.165 67.9915C372.684 69.0805 371.704 70.4527 371.225 72.108L358.353 71.0625C359.006 68.0133 360.291 65.3778 362.208 63.1562C364.124 60.9129 366.596 59.1922 369.624 57.9943C372.673 56.7746 376.202 56.1648 380.209 56.1648C382.997 56.1648 385.665 56.4915 388.213 57.1449C390.784 57.7983 393.06 58.8111 395.042 60.1832C397.045 61.5554 398.624 63.3196 399.779 65.4759C400.933 67.6103 401.51 70.1695 401.51 73.1534V107H388.311V100.041H387.919C387.114 101.609 386.035 102.992 384.685 104.19C383.335 105.366 381.712 106.292 379.817 106.967C377.922 107.621 375.733 107.947 373.25 107.947ZM377.236 98.3423C379.284 98.3423 381.091 97.9394 382.659 97.1335C384.228 96.3059 385.458 95.1951 386.351 93.8011C387.244 92.4072 387.691 90.8281 387.691 89.0639V83.7386C387.255 84.0218 386.656 84.2831 385.894 84.5227C385.153 84.7405 384.315 84.9474 383.378 85.1435C382.442 85.3177 381.505 85.4811 380.569 85.6335C379.632 85.7642 378.783 85.884 378.02 85.9929C376.387 86.2325 374.96 86.6136 373.74 87.1364C372.521 87.6591 371.573 88.367 370.898 89.2599C370.223 90.1312 369.885 91.2202 369.885 92.527C369.885 94.4219 370.571 95.8703 371.944 96.8722C373.337 97.8523 375.102 98.3423 377.236 98.3423ZM419.985 40.0909L436.157 90.9261H436.778L452.983 40.0909H468.664L445.599 107H427.369L404.271 40.0909H419.985ZM508.637 85.6335V56.8182H522.554V107H509.192V97.8849H508.669C507.537 100.825 505.653 103.188 503.017 104.974C500.404 106.76 497.213 107.653 493.445 107.653C490.091 107.653 487.14 106.891 484.591 105.366C482.043 103.842 480.05 101.675 478.613 98.8651C477.197 96.0554 476.478 92.6903 476.456 88.7699V56.8182H490.374V86.2869C490.396 89.2491 491.191 91.5904 492.759 93.3111C494.327 95.0317 496.429 95.892 499.064 95.892C500.741 95.892 502.31 95.5109 503.769 94.7486C505.228 93.9645 506.404 92.8101 507.297 91.2855C508.212 89.7609 508.658 87.8769 508.637 85.6335ZM547.604 40.0909V107H533.687V40.0909H547.604Z" fill="#E4771F"/>
<rect x="17" y="13" width="120" height="120" fill="#E4771F"/>
<path d="M90.8333 68.8833V64.3333C90.8333 61.95 88.8833 60 86.5 60H51.8333C49.45 60 47.5 61.95 47.5 64.3333V65.4167L37.3167 61.7333C35.5833 61.0833 33.85 61.95 33.2 63.6833C32.55 65.4167 33.4167 67.15 35.15 67.8L47.5 72.1333V77.3333H35.5833C33.85 77.3333 32.3333 78.85 32.3333 80.5833C32.3333 82.3167 33.85 83.8333 35.5833 83.8333H47.5V86C47.5 86.8667 47.5 87.95 47.7167 88.8167L34.9333 93.3667C33.2 94.0167 32.3333 95.75 32.9833 97.4833C33.6333 99.2167 35.3667 100.083 37.1 99.4333L49.45 94.8834C52.4833 101.383 58.55 106.15 65.9167 107.233V76.25C65.9167 74.5167 67.4333 73 69.1667 73C70.9 73 72.4167 74.5167 72.4167 76.25V107.45C77.4 106.583 81.95 104.2 85.2 100.517C83.25 96.8333 82.1667 92.5 82.1667 88.1667C82.1667 80.5833 85.6333 73.65 90.8333 68.8833ZM58.3333 55.6667H80C81.3 55.6667 82.1667 54.8 82.1667 53.5V51.3333C82.1667 44.1833 76.3167 38.3333 69.1667 38.3333C62.0167 38.3333 56.1667 44.1833 56.1667 51.3333V53.5C56.1667 54.8 57.0333 55.6667 58.3333 55.6667Z" fill="white"/>
<path d="M118.799 94.2555C118.799 94.1571 118.795 94.0551 118.785 93.9532V81.2864H118.771V81.2547C118.771 80.5586 118.525 79.5145 117.361 78.4844C116.616 77.8235 115.579 77.2434 114.281 76.7582C111.778 75.8231 108.477 75.3063 104.986 75.3063C101.495 75.3063 98.1937 75.8231 95.6906 76.7582C94.3969 77.2434 93.3598 77.8235 92.6109 78.4844C91.4438 79.5145 91.2012 80.5586 91.2012 81.2547C91.2012 81.3567 91.2047 81.4551 91.2152 81.5571V87.5969C91.2117 87.6461 91.2117 87.6953 91.2117 87.7446C91.2117 87.7938 91.2117 87.8465 91.2152 87.8922V100.773C91.2188 101.47 91.4684 102.507 92.625 103.53C93.3703 104.191 94.4074 104.771 95.7047 105.256C98.2078 106.191 101.509 106.708 105 106.708C108.491 106.708 111.792 106.191 114.295 105.256C115.589 104.771 116.626 104.191 117.375 103.53C118.532 102.507 118.781 101.47 118.785 100.773V94.5578C118.795 94.4559 118.799 94.3539 118.799 94.2555ZM93.7465 84.8406C94.2387 85.1324 94.8223 85.4172 95.5148 85.6844C98.0391 86.6617 101.4 87.2031 104.986 87.2031C108.572 87.2031 111.94 86.6617 114.464 85.6809C115.136 85.4207 115.733 85.1324 116.254 84.8196V87.7446C116.254 88.2543 115.417 89.0946 113.55 89.8188C111.339 90.6836 108.217 91.1758 104.986 91.1758C101.759 91.1758 98.6402 90.6836 96.4359 89.8223C94.6535 89.1262 93.8098 88.3176 93.75 87.8078V84.8406H93.7465ZM94.2879 80.3793C94.7941 79.9328 95.5852 79.5004 96.5766 79.1278C98.802 78.2946 101.79 77.8375 104.986 77.8375C108.182 77.8375 111.17 78.2946 113.395 79.1278C114.387 79.4969 115.178 79.9293 115.684 80.3793C115.888 80.5621 116.232 80.9137 116.239 81.2442V81.2617C116.232 81.768 115.396 82.6012 113.55 83.3184C111.339 84.1797 108.217 84.6719 104.986 84.6719C101.755 84.6719 98.6367 84.1797 96.4289 83.3254C94.6113 82.6223 93.8555 81.8524 93.7465 81.3813V81.2864H93.7324V81.2547C93.7324 80.9242 94.0805 80.5656 94.2879 80.3793ZM93.7465 91.3305C94.2633 91.6364 94.8539 91.9211 95.5148 92.1813C98.0391 93.1656 101.404 93.7071 104.986 93.7071C108.572 93.7071 111.936 93.1656 114.468 92.1813C115.136 91.9211 115.733 91.6328 116.254 91.3235V94.3785C116.145 94.8496 115.382 95.6196 113.554 96.3262C111.339 97.1805 108.217 97.6727 104.986 97.6727C101.766 97.6727 98.6543 97.1805 96.4535 96.3262C94.5867 95.602 93.75 94.7582 93.75 94.2449V91.3305H93.7465ZM115.698 101.631C115.192 102.078 114.401 102.51 113.409 102.883C111.184 103.716 108.196 104.173 105 104.173C101.804 104.173 98.816 103.716 96.5906 102.883C95.5992 102.514 94.8082 102.081 94.302 101.631C94.0945 101.448 93.7465 101.09 93.7465 100.756V97.8274C94.2668 98.1367 94.8645 98.425 95.5324 98.6852C98.0531 99.666 101.411 100.204 104.982 100.204C108.565 100.204 111.933 99.666 114.464 98.6887C115.164 98.418 115.754 98.1297 116.254 97.8379V100.759C116.254 101.09 115.905 101.448 115.698 101.631Z" fill="white"/>
<path d="M112.718 88.1096C112.764 88.3967 112.923 88.6536 113.159 88.8237C113.276 88.908 113.408 88.9684 113.548 89.0015C113.688 89.0346 113.834 89.0397 113.976 89.0167C114.118 88.9936 114.254 88.9428 114.377 88.867C114.499 88.7913 114.606 88.6922 114.69 88.5754C114.774 88.4585 114.835 88.3262 114.868 88.186C114.901 88.0459 114.906 87.9005 114.883 87.7583C114.836 87.4712 114.678 87.2143 114.442 87.0442C114.206 86.874 113.912 86.8046 113.625 86.8512C113.337 86.8978 113.081 87.0565 112.91 87.2925C112.74 87.5285 112.671 87.8224 112.718 88.1096Z" fill="white"/>
<path d="M112.717 94.3223C112.717 94.6132 112.832 94.8922 113.038 95.0979C113.244 95.3036 113.523 95.4192 113.814 95.4192C114.105 95.4192 114.384 95.3036 114.589 95.0979C114.795 94.8922 114.911 94.6132 114.911 94.3223C114.911 94.0314 114.795 93.7524 114.589 93.5467C114.384 93.341 114.105 93.2254 113.814 93.2254C113.523 93.2254 113.244 93.341 113.038 93.5467C112.832 93.7524 112.717 94.0314 112.717 94.3223Z" fill="white"/>
<path d="M112.717 100.911C112.717 101.201 112.832 101.48 113.038 101.686C113.244 101.892 113.523 102.007 113.814 102.007C114.105 102.007 114.384 101.892 114.589 101.686C114.795 101.48 114.911 101.201 114.911 100.911C114.911 100.62 114.795 100.341 114.589 100.135C114.384 99.9293 114.105 99.8137 113.814 99.8137C113.523 99.8137 113.244 99.9293 113.038 100.135C112.832 100.341 112.717 100.62 112.717 100.911Z" fill="white"/>
</svg>
