<svg width="460" height="146" viewBox="0 0 460 146" fill="none" xmlns="http://www.w3.org/2000/svg">
<rect x="17" y="13" width="120" height="120" fill="#E4771F"/>
<rect x="2" y="2" width="456" height="142" stroke="black" stroke-width="4"/>
<path d="M173.903 40.0909L190.075 90.9261H190.696L206.901 40.0909H222.582L199.517 107H181.287L158.189 40.0909H173.903ZM262.555 85.6335V56.8182H276.472V107H263.11V97.8849H262.587C261.455 100.825 259.571 103.188 256.935 104.974C254.322 106.76 251.131 107.653 247.363 107.653C244.009 107.653 241.058 106.891 238.509 105.366C235.961 103.842 233.968 101.675 232.531 98.8651C231.115 96.0554 230.396 92.6903 230.374 88.7699V56.8182H244.292V86.2869C244.314 89.2491 245.109 91.5904 246.677 93.3111C248.245 95.0317 250.347 95.892 252.982 95.892C254.659 95.892 256.228 95.5109 257.687 94.7486C259.146 93.9645 260.322 92.8101 261.215 91.2855C262.13 89.7609 262.576 87.8769 262.555 85.6335ZM301.522 40.0909V107H287.605V40.0909H301.522ZM311.528 95.2386V84.098L339.461 40.0909H349.066V55.5114H343.381L325.772 83.3793V83.902H365.467V95.2386H311.528ZM343.643 107V91.8409L343.904 86.9077V40.0909H357.168V107H343.643ZM434.32 63.5156H420.01C419.749 61.6643 419.215 60.0199 418.409 58.5824C417.603 57.1231 416.569 55.8816 415.305 54.858C414.042 53.8343 412.583 53.0502 410.928 52.5057C409.294 51.9612 407.519 51.6889 405.602 51.6889C402.139 51.6889 399.123 52.5492 396.553 54.2699C393.982 55.9687 391.99 58.4517 390.574 61.7188C389.158 64.964 388.45 68.9062 388.45 73.5455C388.45 78.3153 389.158 82.3229 390.574 85.5682C392.011 88.8134 394.015 91.2637 396.585 92.919C399.155 94.5743 402.128 95.402 405.504 95.402C407.399 95.402 409.152 95.1515 410.764 94.6506C412.398 94.1496 413.846 93.42 415.109 92.4616C416.373 91.4815 417.418 90.2945 418.246 88.9006C419.095 87.5066 419.683 85.9167 420.01 84.1307L434.32 84.196C433.949 87.267 433.024 90.2292 431.543 93.0824C430.083 95.9138 428.112 98.4512 425.629 100.695C423.168 102.916 420.228 104.68 416.808 105.987C413.411 107.272 409.566 107.915 405.276 107.915C399.308 107.915 393.972 106.564 389.267 103.864C384.584 101.163 380.882 97.2533 378.159 92.1349C375.458 87.0166 374.108 80.8201 374.108 73.5455C374.108 66.2491 375.48 60.0417 378.224 54.9233C380.969 49.8049 384.693 45.9062 389.398 43.2273C394.102 40.5265 399.395 39.1761 405.276 39.1761C409.152 39.1761 412.746 39.7206 416.057 40.8097C419.389 41.8987 422.34 43.4886 424.911 45.5795C427.481 47.6487 429.571 50.1861 431.183 53.1918C432.817 56.1974 433.862 59.6387 434.32 63.5156Z" fill="#E4771F"/>
<path d="M90.8333 68.8833V64.3333C90.8333 61.95 88.8833 60 86.5 60H51.8333C49.45 60 47.5 61.95 47.5 64.3333V65.4167L37.3167 61.7333C35.5833 61.0833 33.85 61.95 33.2 63.6833C32.55 65.4167 33.4167 67.15 35.15 67.8L47.5 72.1333V77.3333H35.5833C33.85 77.3333 32.3333 78.85 32.3333 80.5833C32.3333 82.3167 33.85 83.8333 35.5833 83.8333H47.5V86C47.5 86.8667 47.5 87.95 47.7167 88.8167L34.9333 93.3667C33.2 94.0167 32.3333 95.75 32.9833 97.4833C33.6333 99.2167 35.3667 100.083 37.1 99.4333L49.45 94.8833C52.4833 101.383 58.55 106.15 65.9167 107.233V76.25C65.9167 74.5167 67.4333 73 69.1667 73C70.9 73 72.4167 74.5167 72.4167 76.25V107.45C77.4 106.583 81.95 104.2 85.2 100.517C83.25 96.8333 82.1667 92.5 82.1667 88.1667C82.1667 80.5833 85.6333 73.65 90.8333 68.8833ZM58.3333 55.6667H80C81.3 55.6667 82.1667 54.8 82.1667 53.5V51.3333C82.1667 44.1833 76.3167 38.3333 69.1667 38.3333C62.0167 38.3333 56.1667 44.1833 56.1667 51.3333V53.5C56.1667 54.8 57.0333 55.6667 58.3333 55.6667Z" fill="white"/>
<path d="M118.799 94.2555C118.799 94.157 118.795 94.0551 118.785 93.9531V81.2863H118.771V81.2547C118.771 80.5586 118.525 79.5145 117.361 78.4844C116.616 77.8234 115.579 77.2434 114.281 76.7582C111.778 75.823 108.477 75.3063 104.986 75.3063C101.495 75.3063 98.1937 75.823 95.6906 76.7582C94.3969 77.2434 93.3598 77.8234 92.6109 78.4844C91.4438 79.5145 91.2012 80.5586 91.2012 81.2547C91.2012 81.3566 91.2047 81.4551 91.2152 81.557V87.5969C91.2117 87.6461 91.2117 87.6953 91.2117 87.7445C91.2117 87.7938 91.2117 87.8465 91.2152 87.8922V100.773C91.2188 101.47 91.4684 102.507 92.625 103.53C93.3703 104.191 94.4074 104.771 95.7047 105.256C98.2078 106.191 101.509 106.708 105 106.708C108.491 106.708 111.792 106.191 114.295 105.256C115.589 104.771 116.626 104.191 117.375 103.53C118.532 102.507 118.781 101.47 118.785 100.773V94.5578C118.795 94.4559 118.799 94.3539 118.799 94.2555ZM93.7465 84.8406C94.2387 85.1324 94.8223 85.4172 95.5148 85.6844C98.0391 86.6617 101.4 87.2031 104.986 87.2031C108.572 87.2031 111.94 86.6617 114.464 85.6809C115.136 85.4207 115.733 85.1324 116.254 84.8195V87.7445C116.254 88.2543 115.417 89.0945 113.55 89.8188C111.339 90.6836 108.217 91.1758 104.986 91.1758C101.759 91.1758 98.6402 90.6836 96.4359 89.8223C94.6535 89.1262 93.8098 88.3176 93.75 87.8078V84.8406H93.7465ZM94.2879 80.3793C94.7941 79.9328 95.5852 79.5004 96.5766 79.1277C98.802 78.2945 101.79 77.8375 104.986 77.8375C108.182 77.8375 111.17 78.2945 113.395 79.1277C114.387 79.4969 115.178 79.9293 115.684 80.3793C115.888 80.5621 116.232 80.9137 116.239 81.2441V81.2617C116.232 81.768 115.396 82.6012 113.55 83.3184C111.339 84.1797 108.217 84.6719 104.986 84.6719C101.755 84.6719 98.6367 84.1797 96.4289 83.3254C94.6113 82.6223 93.8555 81.8523 93.7465 81.3813V81.2863H93.7324V81.2547C93.7324 80.9242 94.0805 80.5656 94.2879 80.3793ZM93.7465 91.3305C94.2633 91.6363 94.8539 91.9211 95.5148 92.1813C98.0391 93.1656 101.404 93.707 104.986 93.707C108.572 93.707 111.936 93.1656 114.468 92.1813C115.136 91.9211 115.733 91.6328 116.254 91.3234V94.3785C116.145 94.8496 115.382 95.6195 113.554 96.3262C111.339 97.1805 108.217 97.6727 104.986 97.6727C101.766 97.6727 98.6543 97.1805 96.4535 96.3262C94.5867 95.602 93.75 94.7582 93.75 94.2449V91.3305H93.7465ZM115.698 101.631C115.192 102.078 114.401 102.51 113.409 102.883C111.184 103.716 108.196 104.173 105 104.173C101.804 104.173 98.816 103.716 96.5906 102.883C95.5992 102.514 94.8082 102.081 94.302 101.631C94.0945 101.448 93.7465 101.09 93.7465 100.756V97.8273C94.2668 98.1367 94.8645 98.425 95.5324 98.6852C98.0531 99.666 101.411 100.204 104.982 100.204C108.565 100.204 111.933 99.666 114.464 98.6887C115.164 98.418 115.754 98.1297 116.254 97.8379V100.759C116.254 101.09 115.905 101.448 115.698 101.631Z" fill="white"/>
<path d="M112.718 88.1095C112.764 88.3967 112.923 88.6536 113.159 88.8237C113.276 88.9079 113.408 88.9683 113.548 89.0014C113.688 89.0345 113.834 89.0397 113.976 89.0166C114.118 88.9936 114.254 88.9427 114.377 88.867C114.499 88.7913 114.606 88.6922 114.69 88.5753C114.774 88.4585 114.835 88.3262 114.868 88.186C114.901 88.0458 114.906 87.9005 114.883 87.7583C114.836 87.4711 114.678 87.2143 114.442 87.0441C114.206 86.874 113.912 86.8046 113.625 86.8512C113.337 86.8978 113.081 87.0565 112.91 87.2925C112.74 87.5285 112.671 87.8224 112.718 88.1095Z" fill="white"/>
<path d="M112.717 94.3223C112.717 94.6132 112.832 94.8922 113.038 95.0979C113.244 95.3036 113.523 95.4191 113.814 95.4191C114.105 95.4191 114.384 95.3036 114.589 95.0979C114.795 94.8922 114.911 94.6132 114.911 94.3223C114.911 94.0314 114.795 93.7524 114.589 93.5467C114.384 93.341 114.105 93.2254 113.814 93.2254C113.523 93.2254 113.244 93.341 113.038 93.5467C112.832 93.7524 112.717 94.0314 112.717 94.3223Z" fill="white"/>
<path d="M112.717 100.911C112.717 101.201 112.832 101.48 113.038 101.686C113.244 101.892 113.523 102.007 113.814 102.007C114.105 102.007 114.384 101.892 114.589 101.686C114.795 101.48 114.911 101.201 114.911 100.911C114.911 100.62 114.795 100.341 114.589 100.135C114.384 99.9292 114.105 99.8137 113.814 99.8137C113.523 99.8137 113.244 99.9292 113.038 100.135C112.832 100.341 112.717 100.62 112.717 100.911Z" fill="white"/>
</svg>
