<svg width="120" height="120" viewBox="0 0 120 120" fill="none" xmlns="http://www.w3.org/2000/svg">
<rect width="120" height="120" fill="#E4771F"/>
<path d="M73.8333 55.8833V51.3333C73.8333 48.95 71.8833 47 69.5 47H34.8333C32.45 47 30.5 48.95 30.5 51.3333V52.4167L20.3167 48.7333C18.5833 48.0833 16.85 48.95 16.2 50.6833C15.55 52.4167 16.4167 54.15 18.15 54.8L30.5 59.1333V64.3333H18.5833C16.85 64.3333 15.3333 65.85 15.3333 67.5833C15.3333 69.3167 16.85 70.8333 18.5833 70.8333H30.5V73C30.5 73.8667 30.5 74.95 30.7167 75.8167L17.9333 80.3667C16.2 81.0167 15.3333 82.75 15.9833 84.4833C16.6333 86.2167 18.3667 87.0833 20.1 86.4333L32.45 81.8833C35.4833 88.3833 41.55 93.15 48.9167 94.2333V63.25C48.9167 61.5167 50.4333 60 52.1667 60C53.9 60 55.4167 61.5167 55.4167 63.25V94.45C60.4 93.5833 64.95 91.2 68.2 87.5167C66.25 83.8333 65.1667 79.5 65.1667 75.1667C65.1667 67.5833 68.6333 60.65 73.8333 55.8833ZM41.3333 42.6667H63C64.3 42.6667 65.1667 41.8 65.1667 40.5V38.3333C65.1667 31.1833 59.3167 25.3333 52.1667 25.3333C45.0167 25.3333 39.1667 31.1833 39.1667 38.3333V40.5C39.1667 41.8 40.0333 42.6667 41.3333 42.6667Z" fill="white"/>
<path d="M101.799 81.2555C101.799 81.157 101.795 81.0551 101.785 80.9531V68.2863H101.771V68.2547C101.771 67.5586 101.525 66.5144 100.361 65.4844C99.6156 64.8234 98.5785 64.2434 97.2812 63.7582C94.7781 62.823 91.477 62.3062 87.9859 62.3062C84.4949 62.3062 81.1937 62.823 78.6906 63.7582C77.3969 64.2434 76.3598 64.8234 75.6109 65.4844C74.4438 66.5144 74.2012 67.5586 74.2012 68.2547C74.2012 68.3566 74.2047 68.4551 74.2152 68.557V74.5969C74.2117 74.6461 74.2117 74.6953 74.2117 74.7445C74.2117 74.7937 74.2117 74.8465 74.2152 74.8922V87.7734C74.2188 88.4695 74.4684 89.5066 75.625 90.5297C76.3703 91.1906 77.4074 91.7707 78.7047 92.2559C81.2078 93.191 84.509 93.7078 88 93.7078C91.491 93.7078 94.7922 93.191 97.2953 92.2559C98.5891 91.7707 99.6262 91.1906 100.375 90.5297C101.532 89.5066 101.781 88.4695 101.785 87.7734V81.5578C101.795 81.4559 101.799 81.3539 101.799 81.2555ZM76.7465 71.8406C77.2387 72.1324 77.8223 72.4172 78.5148 72.6844C81.0391 73.6617 84.4 74.2031 87.9859 74.2031C91.5719 74.2031 94.9398 73.6617 97.4641 72.6809C98.1355 72.4207 98.7332 72.1324 99.2535 71.8195V74.7445C99.2535 75.2543 98.4168 76.0945 96.55 76.8187C94.3387 77.6836 91.2168 78.1758 87.9859 78.1758C84.7586 78.1758 81.6402 77.6836 79.4359 76.8223C77.6535 76.1262 76.8098 75.3176 76.75 74.8078V71.8406H76.7465ZM77.2879 67.3793C77.7941 66.9328 78.5852 66.5004 79.5766 66.1277C81.802 65.2945 84.7902 64.8375 87.9859 64.8375C91.1816 64.8375 94.1699 65.2945 96.3953 66.1277C97.3867 66.4969 98.1777 66.9293 98.684 67.3793C98.8879 67.5621 99.2324 67.9137 99.2395 68.2441V68.2617C99.2324 68.768 98.3957 69.6012 96.55 70.3184C94.3387 71.1797 91.2168 71.6719 87.9859 71.6719C84.7551 71.6719 81.6367 71.1797 79.4289 70.3254C77.6113 69.6223 76.8555 68.8523 76.7465 68.3812V68.2863H76.7324V68.2547C76.7324 67.9242 77.0805 67.5656 77.2879 67.3793ZM76.7465 78.3305C77.2633 78.6363 77.8539 78.9211 78.5148 79.1812C81.0391 80.1656 84.4035 80.707 87.9859 80.707C91.5719 80.707 94.9363 80.1656 97.4676 79.1812C98.1355 78.9211 98.7332 78.6328 99.2535 78.3234V81.3785C99.1445 81.8496 98.3816 82.6195 96.5535 83.3262C94.3387 84.1805 91.2168 84.6727 87.9859 84.6727C84.7656 84.6727 81.6543 84.1805 79.4535 83.3262C77.5867 82.6019 76.75 81.7582 76.75 81.2449V78.3305H76.7465ZM98.698 88.6312C98.1918 89.0777 97.4008 89.5102 96.4094 89.8828C94.184 90.716 91.1957 91.173 88 91.173C84.8043 91.173 81.816 90.716 79.5906 89.8828C78.5992 89.5137 77.8082 89.0812 77.302 88.6312C77.0945 88.4484 76.7465 88.0898 76.7465 87.7559V84.8273C77.2668 85.1367 77.8645 85.425 78.5324 85.6852C81.0531 86.666 84.4105 87.2039 87.9824 87.2039C91.5648 87.2039 94.9328 86.666 97.4641 85.6887C98.1637 85.418 98.7543 85.1297 99.2535 84.8379V87.7594C99.2535 88.0898 98.9055 88.4484 98.698 88.6312Z" fill="white"/>
<path d="M95.7175 75.1095C95.7641 75.3967 95.9229 75.6536 96.1588 75.8237C96.2757 75.9079 96.408 75.9683 96.5482 76.0014C96.6884 76.0345 96.8337 76.0397 96.9759 76.0166C97.1181 75.9936 97.2543 75.9427 97.3769 75.867C97.4994 75.7913 97.6058 75.6922 97.69 75.5753C97.7743 75.4585 97.8347 75.3262 97.8678 75.186C97.9009 75.0458 97.9061 74.9005 97.883 74.7583C97.8364 74.4711 97.6777 74.2143 97.4417 74.0441C97.2057 73.874 96.9118 73.8046 96.6246 73.8512C96.3375 73.8978 96.0806 74.0565 95.9105 74.2925C95.7404 74.5285 95.671 74.8224 95.7175 75.1095Z" fill="white"/>
<path d="M95.7168 81.3223C95.7168 81.6132 95.8324 81.8922 96.0381 82.0979C96.2438 82.3036 96.5228 82.4191 96.8137 82.4191C97.1046 82.4191 97.3836 82.3036 97.5893 82.0979C97.795 81.8922 97.9105 81.6132 97.9105 81.3223C97.9105 81.0314 97.795 80.7524 97.5893 80.5467C97.3836 80.341 97.1046 80.2254 96.8137 80.2254C96.5228 80.2254 96.2438 80.341 96.0381 80.5467C95.8324 80.7524 95.7168 81.0314 95.7168 81.3223Z" fill="white"/>
<path d="M95.7168 87.9105C95.7168 88.2014 95.8324 88.4804 96.0381 88.6861C96.2438 88.8918 96.5228 89.0074 96.8137 89.0074C97.1046 89.0074 97.3836 88.8918 97.5893 88.6861C97.795 88.4804 97.9105 88.2014 97.9105 87.9105C97.9105 87.6196 97.795 87.3406 97.5893 87.1349C97.3836 86.9292 97.1046 86.8137 96.8137 86.8137C96.5228 86.8137 96.2438 86.9292 96.0381 87.1349C95.8324 87.3406 95.7168 87.6196 95.7168 87.9105Z" fill="white"/>
</svg>
